# xmcd
#
# Track frame offsets:
#	150
#	37440
#	62255
#	84018
#	96054
#	110808
#	144835
#	158576
#	184684
#	231770
#
# Disc length: 3304 seconds
#
# Revision: 3
# Processed by: cddbd v1.5.1PL2 Copyright (c) Steve Scherf et al.
# Submitted via: audiograbber 1.83.01
#
DISCID=750ce60a
DTITLE=Jan Akkerman and Curtis Knight - Blues Root
DYEAR=1998
DGENRE=Blues
TTITLE0=Flat Back Sue
TTITLE1=Daughter of Misfortune
TTITLE2=Now Is The Time
TTITLE3=Driving Wheel
TTITLE4=Blues Root Blues
TTITLE5=Don't Accuse Me
TTITLE6=Little Wing
TTITLE7=I Would If I Could
TTITLE8=Just Jamming
TTITLE9=Cross Road Blues
EXTD=
EXTT0=
EXTT1=
EXTT2=
EXTT3=
EXTT4=
EXTT5=
EXTT6=
EXTT7=
EXTT8=
EXTT9=
PLAYORDER=
